Release Info:

General

Format                                   : Matroska
Format version                           : Version 2
File size                                : 690 MiB
Duration                                 : 1h 44mn
Overall bit rate                         : 926 Kbps

Video
ID                                       : 1
Format                                   : MPEG-4 Visual
Format profile                           : Advanced Simple@L5
Format settings, BVOP                    : Yes
Format settings, QPel                    : Yes
Format settings, GMC                     : No warppoints
Format settings, Matrix                  : Default (H.263)
Codec ID                                 : V_MS/VFW/FOURCC / XVID
Codec ID/Hint                            : XviD
Duration                                 : 1h 44mn
Bit rate                                 : 780 Kbps
Width                                    : 672 pixels
Height                                   : 368 pixels
Display aspect ratio                     : 1.85:1
Frame rate mode                          : Constant
Frame rate                               : 25.000 fps
Color space                              : YUV
Chroma subsampling                       : 4:2:0
Bit depth                                : 8 bits
Scan type                                : Progressive
Compression mode                         : Lossy
Bits/(Pixel*Frame)                       : 0.126
Stream size                              : 581 MiB (84%)
Language                                 : English
Default                                  : Yes
Forced                                   : No

Audio
ID                                       : 2
Format                                   : MPEG Audio
Format version                           : Version 1
Format profile                           : Layer 3
Mode                                     : Joint stereo
Mode extension                           : MS Stereo
Muxing mode                              : Header stripping
Codec ID                                 : A_MPEG/L3
Codec ID/Hint                            : MP3
Duration                                 : 1h 44mn
Bit rate mode                            : Constant
Bit rate                                 : 128 Kbps
Channel(s)                               : 2 channels
Sampling rate                            : 44.1 KHz
Compression mode                         : Lossy
Stream size                              : 95.4 MiB (14%)
Language                                 : English
Default                                  : Yes
Forced                                   : No

Source:
credit to original movie ripper Lum1x (Thanks)

IMDB Info:

Two young officers are marked for death after confiscating a small cache of money and firearms from the members of a notorious cartel, during a routine traffic stop.

Director: David Ayer
Writer: David Ayer
Stars: Jake Gyllenhaal, Michael Peña and Anna Kendrick

Genres: Crime | Drama | Thriller
 
http://www.imdb.com/title/tt1855199/

Screen Shot:
 
http://www.shotpix.com/images/99675853032263021871.png 
http://www.shotpix.com/images/07896087122569838668.png 
http://www.shotpix.com/images/11573053694763453734.png 
http://www.shotpix.com/images/45202883428001204060.png 
http://www.shotpix.com/images/53842052699945126930.png 
http://www.shotpix.com/images/83740391654387258862.png 
http://www.shotpix.com/images/69671454567486733037.png